<svg xmlns="http://www.w3.org/2000/svg" xmlns:xlink="http://www.w3.org/1999/xlink" width="1000" zoomAndPan="magnify" viewBox="0 0 750 749.999995" height="1000" preserveAspectRatio="xMidYMid meet" version="1.0"><defs><g/><clipPath id="4c059fde51"><path d="M 343.582031 138.824219 L 410.355469 138.824219 L 410.355469 611.175781 L 343.582031 611.175781 Z M 343.582031 138.824219 " clip-rule="nonzero"/></clipPath><clipPath id="e04a22b0f1"><path d="M 0.582031 0.824219 L 67.355469 0.824219 L 67.355469 473.175781 L 0.582031 473.175781 Z M 0.582031 0.824219 " clip-rule="nonzero"/></clipPath><clipPath id="4d588924a9"><rect x="0" width="68" y="0" height="474"/></clipPath><clipPath id="de45a93d2d"><path d="M 204.0625 215.777344 L 545.917969 215.777344 L 545.917969 285.03125 L 204.0625 285.03125 Z M 204.0625 215.777344 " clip-rule="nonzero"/></clipPath><clipPath id="ed46a41600"><path d="M 0.0625 0.777344 L 341.917969 0.777344 L 341.917969 70.03125 L 0.0625 70.03125 Z M 0.0625 0.777344 " clip-rule="nonzero"/></clipPath><clipPath id="f18a0c16c7"><rect x="0" width="342" y="0" height="71"/></clipPath></defs><g clip-path="url(#4c059fde51)"><g transform="matrix(1, 0, 0, 1, 343, 138)"><g clip-path="url(#4d588924a9)"><g clip-path="url(#e04a22b0f1)"><path fill="#ffffff" d="M 0.582031 0.824219 L 67.355469 0.824219 L 67.355469 473.195312 L 0.582031 473.195312 Z M 0.582031 0.824219 " fill-opacity="1" fill-rule="nonzero"/></g></g></g></g><g clip-path="url(#de45a93d2d)"><g transform="matrix(1, 0, 0, 1, 204, 215)"><g clip-path="url(#f18a0c16c7)"><g clip-path="url(#ed46a41600)"><path fill="#ffffff" d="M 341.917969 0.777344 L 341.917969 70.03125 L -0.0234375 70.03125 L -0.0234375 0.777344 Z M 341.917969 0.777344 " fill-opacity="1" fill-rule="nonzero"/></g></g></g></g><g fill="#ffffff" fill-opacity="1"><g transform="translate(125.444543, 527.143941)"><g><path d="M 77.75 2.5 C 64.25 2.5 51.207031 0.582031 38.625 -3.25 C 26.039062 -7.082031 16.082031 -12.164062 8.75 -18.5 L 20 -43.75 C 27.164062 -38.082031 35.957031 -33.457031 46.375 -29.875 C 56.789062 -26.289062 67.25 -24.5 77.75 -24.5 C 90.75 -24.5 100.457031 -26.582031 106.875 -30.75 C 113.289062 -34.914062 116.5 -40.414062 116.5 -47.25 C 116.5 -52.25 114.707031 -56.375 111.125 -59.625 C 107.539062 -62.875 103 -65.414062 97.5 -67.25 C 92 -69.082031 84.5 -71.164062 75 -73.5 C 61.664062 -76.664062 50.875 -79.832031 42.625 -83 C 34.375 -86.164062 27.289062 -91.125 21.375 -97.875 C 15.457031 -104.625 12.5 -113.75 12.5 -125.25 C 12.5 -134.914062 15.125 -143.707031 20.375 -151.625 C 25.625 -159.539062 33.539062 -165.832031 44.125 -170.5 C 54.707031 -175.164062 67.664062 -177.5 83 -177.5 C 93.664062 -177.5 104.164062 -176.164062 114.5 -173.5 C 124.832031 -170.832031 133.75 -167 141.25 -162 L 131 -136.75 C 123.332031 -141.25 115.332031 -144.664062 107 -147 C 98.664062 -149.332031 90.582031 -150.5 82.75 -150.5 C 69.914062 -150.5 60.375 -148.332031 54.125 -144 C 47.875 -139.664062 44.75 -133.914062 44.75 -126.75 C 44.75 -121.75 46.539062 -117.664062 50.125 -114.5 C 53.707031 -111.332031 58.25 -108.832031 63.75 -107 C 69.25 -105.164062 76.75 -103.082031 86.25 -100.75 C 99.25 -97.75 109.914062 -94.625 118.25 -91.375 C 126.582031 -88.125 133.707031 -83.164062 139.625 -76.5 C 145.539062 -69.832031 148.5 -60.832031 148.5 -49.5 C 148.5 -39.832031 145.875 -31.082031 140.625 -23.25 C 135.375 -15.414062 127.414062 -9.164062 116.75 -4.5 C 106.082031 0.164062 93.082031 2.5 77.75 2.5 Z M 77.75 2.5 "/></g></g></g><g fill="#ffffff" fill-opacity="1"><g transform="translate(455.049556, 527.143941)"><g><path d="M 104.5 2.5 C 86.832031 2.5 70.875 -1.375 56.625 -9.125 C 42.375 -16.875 31.207031 -27.582031 23.125 -41.25 C 15.039062 -54.914062 11 -70.332031 11 -87.5 C 11 -104.664062 15.082031 -120.082031 23.25 -133.75 C 31.414062 -147.414062 42.625 -158.125 56.875 -165.875 C 71.125 -173.625 87.082031 -177.5 104.75 -177.5 C 119.082031 -177.5 132.164062 -175 144 -170 C 155.832031 -165 165.832031 -157.75 174 -148.25 L 153 -128.5 C 140.332031 -142.164062 124.75 -149 106.25 -149 C 94.25 -149 83.5 -146.375 74 -141.125 C 64.5 -135.875 57.082031 -128.582031 51.75 -119.25 C 46.414062 -109.914062 43.75 -99.332031 43.75 -87.5 C 43.75 -75.664062 46.414062 -65.082031 51.75 -55.75 C 57.082031 -46.414062 64.5 -39.125 74 -33.875 C 83.5 -28.625 94.25 -26 106.25 -26 C 124.75 -26 140.332031 -32.914062 153 -46.75 L 174 -26.75 C 165.832031 -17.25 155.789062 -10 143.875 -5 C 131.957031 0 118.832031 2.5 104.5 2.5 Z M 104.5 2.5 "/></g></g></g></svg>